<svg xmlns="http://www.w3.org/2000/svg" version="1.1" xmlns:xlink="http://www.w3.org/1999/xlink" xmlns:svgjs="http://svgjs.com/svgjs" width="700pt" height="700pt"><svg width="700pt" height="700pt" version="1.1" viewBox="0 0 700 700" xmlns="http://www.w3.org/2000/svg" xmlns:xlink="http://www.w3.org/1999/xlink">
 <defs>
  <symbol id="SvgjsSymbol1022" overflow="visible">
   <path d="m3.0625-0.1875c-0.15625 0.085938-0.32422 0.14844-0.5 0.1875-0.16797 0.039062-0.34375 0.0625-0.53125 0.0625-0.55469 0-0.99219-0.15625-1.3125-0.46875-0.32422-0.3125-0.48438-0.73438-0.48438-1.2656s0.16016-0.94531 0.48438-1.25c0.32031-0.3125 0.75781-0.46875 1.3125-0.46875 0.1875 0 0.36328 0.023437 0.53125 0.0625 0.17578 0.042969 0.34375 0.10156 0.5 0.17188v0.70312c-0.15625-0.11328-0.3125-0.19531-0.46875-0.25-0.15625-0.050781-0.32031-0.078125-0.48438-0.078125-0.3125 0-0.55859 0.10156-0.73438 0.29688-0.16797 0.19922-0.25 0.46875-0.25 0.8125s0.082031 0.61719 0.25 0.8125c0.17578 0.19922 0.42188 0.29688 0.73438 0.29688 0.16406 0 0.32812-0.019531 0.48438-0.0625 0.15625-0.050781 0.3125-0.13281 0.46875-0.25z"></path>
  </symbol>
  <symbol id="SvgjsSymbol1021" overflow="visible">
   <path d="m2.25-1.8281c-0.074219-0.03125-0.14844-0.050781-0.21875-0.0625-0.0625-0.019531-0.13281-0.03125-0.20312-0.03125-0.21094 0-0.37109 0.070313-0.48438 0.20312-0.10547 0.13672-0.15625 0.32422-0.15625 0.5625v1.1562h-0.79688v-2.5h0.79688v0.40625c0.10156-0.16406 0.21875-0.28516 0.34375-0.35938 0.13281-0.070313 0.29688-0.10938 0.48438-0.10938h0.09375c0.03125 0 0.070313 0.007812 0.125 0.015625z"></path>
  </symbol>
  <symbol id="SvgjsSymbol1020" overflow="visible">
   <path d="m2.8906-1.2656v0.23438h-1.875c0.019531 0.1875 0.085937 0.32812 0.20312 0.42188 0.11328 0.09375 0.27344 0.14062 0.48438 0.14062 0.16406 0 0.33594-0.019531 0.51562-0.0625 0.17578-0.050781 0.35938-0.12891 0.54688-0.23438v0.60938c-0.1875 0.074219-0.38281 0.125-0.57812 0.15625-0.1875 0.039062-0.375 0.0625-0.5625 0.0625-0.44922 0-0.79688-0.11328-1.0469-0.34375-0.25-0.22656-0.375-0.55078-0.375-0.96875 0-0.40625 0.11719-0.72266 0.35938-0.95312 0.25-0.23828 0.58594-0.35938 1.0156-0.35938 0.39453 0 0.71094 0.12109 0.95312 0.35938 0.23828 0.23047 0.35938 0.54297 0.35938 0.9375zm-0.82812-0.26562c0-0.14453-0.046875-0.26562-0.14062-0.35938-0.085937-0.09375-0.19922-0.14062-0.34375-0.14062-0.15625 0-0.28125 0.046875-0.375 0.14062-0.09375 0.085937-0.15625 0.20312-0.1875 0.35938z"></path>
  </symbol>
  <symbol id="SvgjsSymbol1019" overflow="visible">
   <path d="m1.5-1.125c-0.16797 0-0.29297 0.03125-0.375 0.09375-0.085938 0.054688-0.125 0.13281-0.125 0.23438 0 0.10547 0.03125 0.1875 0.09375 0.25 0.070312 0.054687 0.17188 0.078125 0.29688 0.078125 0.14453 0 0.26953-0.050781 0.375-0.15625 0.10156-0.11328 0.15625-0.25 0.15625-0.40625v-0.09375zm1.2344-0.29688v1.4219h-0.8125v-0.375c-0.10547 0.15625-0.22656 0.27344-0.35938 0.34375-0.13672 0.0625-0.29688 0.09375-0.48438 0.09375-0.26172 0-0.47656-0.070312-0.64062-0.21875-0.15625-0.15625-0.23438-0.35156-0.23438-0.59375 0-0.28906 0.097656-0.50391 0.29688-0.64062 0.19531-0.14453 0.51562-0.21875 0.95312-0.21875h0.46875v-0.0625c0-0.125-0.054687-0.21094-0.15625-0.26562-0.09375-0.0625-0.24609-0.09375-0.45312-0.09375-0.17969 0-0.33984 0.023438-0.48438 0.0625-0.14844 0.03125-0.28125 0.078125-0.40625 0.14062v-0.60938c0.16406-0.039062 0.33203-0.070312 0.5-0.09375 0.17578-0.019531 0.35156-0.03125 0.53125-0.03125 0.44531 0 0.76953 0.089844 0.96875 0.26562 0.20703 0.17969 0.3125 0.46875 0.3125 0.875z"></path>
  </symbol>
  <symbol id="SvgjsSymbol1018" overflow="visible">
   <path d="m1.2656-3.2188v0.71875h0.8125v0.5625h-0.8125v1.0625c0 0.125 0.019531 0.21094 0.0625 0.25 0.039063 0.03125 0.13281 0.046875 0.28125 0.046875h0.40625v0.57812h-0.6875c-0.3125 0-0.53906-0.0625-0.67188-0.1875-0.13672-0.13281-0.20312-0.36328-0.20312-0.6875v-1.0625h-0.39062v-0.5625h0.39062v-0.71875z"></path>
  </symbol>
  <symbol id="SvgjsSymbol1017" overflow="visible">
   <path d="m2.0938-2.1406v-1.3438h0.79688v3.4844h-0.79688v-0.35938c-0.11719 0.14844-0.24219 0.25781-0.375 0.32812-0.125 0.0625-0.27734 0.09375-0.45312 0.09375-0.3125 0-0.57031-0.11719-0.76562-0.35938-0.19922-0.25-0.29688-0.56641-0.29688-0.95312 0-0.38281 0.097656-0.69531 0.29688-0.9375 0.19531-0.25 0.45312-0.375 0.76562-0.375 0.16406 0 0.31641 0.039062 0.45312 0.10938 0.13281 0.0625 0.25781 0.16797 0.375 0.3125zm-0.53125 1.625c0.16406 0 0.29688-0.0625 0.39062-0.1875s0.14062-0.30469 0.14062-0.54688c0-0.23828-0.046875-0.42188-0.14062-0.54688s-0.22656-0.1875-0.39062-0.1875c-0.16797 0-0.29688 0.0625-0.39062 0.1875s-0.14062 0.30859-0.14062 0.54688c0 0.24219 0.046875 0.42188 0.14062 0.54688s0.22266 0.1875 0.39062 0.1875z"></path>
  </symbol>
  <symbol id="SvgjsSymbol1016" overflow="visible">
   <path d="m1.7188-0.51562c0.16406 0 0.29688-0.0625 0.39062-0.1875s0.14062-0.30469 0.14062-0.54688c0-0.23828-0.046875-0.42188-0.14062-0.54688s-0.22656-0.1875-0.39062-0.1875c-0.17969 0-0.3125 0.0625-0.40625 0.1875-0.085938 0.125-0.125 0.30859-0.125 0.54688 0 0.24219 0.039062 0.42188 0.125 0.54688 0.09375 0.125 0.22656 0.1875 0.40625 0.1875zm-0.53125-1.625c0.10156-0.14453 0.22266-0.25 0.35938-0.3125 0.13281-0.070313 0.28906-0.10938 0.46875-0.10938 0.3125 0 0.56641 0.125 0.76562 0.375 0.19531 0.24219 0.29688 0.55469 0.29688 0.9375 0 0.38672-0.10156 0.70312-0.29688 0.95312-0.19922 0.24219-0.45312 0.35938-0.76562 0.35938-0.17969 0-0.33594-0.03125-0.46875-0.09375-0.13672-0.070312-0.25781-0.17969-0.35938-0.32812v0.35938h-0.79688v-3.4844h0.79688z"></path>
  </symbol>
  <symbol id="SvgjsSymbol1015" overflow="visible">
   <path d="m0.0625-2.5h0.79688l0.67188 1.6875 0.5625-1.6875h0.8125l-1.0625 2.7344c-0.10547 0.28125-0.23047 0.47266-0.375 0.57812-0.13672 0.11328-0.32031 0.17188-0.54688 0.17188h-0.46875v-0.51562h0.25c0.13281 0 0.23438-0.027344 0.29688-0.078125 0.0625-0.042969 0.11328-0.11719 0.15625-0.21875l0.015625-0.078125z"></path>
  </symbol>
  <symbol id="SvgjsSymbol1014" overflow="visible">
   <path d="m0.42188-3.3438h2.3281v0.65625h-1.4688v0.625h1.375v0.64062h-1.375v1.4219h-0.85938z"></path>
  </symbol>
  <symbol id="SvgjsSymbol1013" overflow="visible">
   <path d="m2.3438-2.4219v0.60938c-0.17969-0.070312-0.34375-0.125-0.5-0.15625-0.15625-0.039062-0.30859-0.0625-0.45312-0.0625-0.14844 0-0.26172 0.023438-0.34375 0.0625-0.074219 0.03125-0.10938 0.089844-0.10938 0.17188 0 0.0625 0.023438 0.11719 0.078125 0.15625 0.0625 0.03125 0.16406 0.054687 0.3125 0.0625l0.14062 0.015625c0.40625 0.054688 0.67969 0.14062 0.82812 0.26562 0.14453 0.11719 0.21875 0.30469 0.21875 0.5625 0 0.26172-0.10156 0.46094-0.29688 0.59375-0.19922 0.13672-0.49609 0.20312-0.89062 0.20312-0.16797 0-0.33984-0.015625-0.51562-0.046875-0.17969-0.019531-0.35547-0.054688-0.53125-0.10938v-0.60938c0.15625 0.085937 0.31641 0.14844 0.48438 0.1875 0.16406 0.03125 0.33594 0.046875 0.51562 0.046875 0.15625 0 0.26953-0.019531 0.34375-0.0625 0.082031-0.039062 0.125-0.10156 0.125-0.1875 0-0.070312-0.03125-0.125-0.09375-0.15625-0.054688-0.039062-0.15625-0.070312-0.3125-0.09375l-0.14062-0.015625c-0.35547-0.039063-0.60547-0.11719-0.75-0.23438-0.14844-0.125-0.21875-0.3125-0.21875-0.5625 0-0.25781 0.085937-0.45312 0.26562-0.57812 0.1875-0.13281 0.46875-0.20312 0.84375-0.20312 0.14453 0 0.29688 0.011719 0.45312 0.03125 0.16406 0.023438 0.34766 0.058594 0.54688 0.10938z"></path>
  </symbol>
  <symbol id="SvgjsSymbol1012" overflow="visible">
   <path d="m1.5781-1.9844c-0.17969 0-0.3125 0.0625-0.40625 0.1875s-0.14062 0.30859-0.14062 0.54688c0 0.24219 0.046875 0.42969 0.14062 0.5625 0.09375 0.125 0.22656 0.1875 0.40625 0.1875 0.17578 0 0.30469-0.0625 0.39062-0.1875 0.09375-0.13281 0.14062-0.32031 0.14062-0.5625 0-0.23828-0.046875-0.42188-0.14062-0.54688-0.085938-0.125-0.21484-0.1875-0.39062-0.1875zm0-0.57812c0.42578 0 0.75781 0.12109 1 0.35938 0.25 0.23047 0.375 0.54688 0.375 0.95312 0 0.41797-0.125 0.74219-0.375 0.96875-0.24219 0.23047-0.57422 0.34375-1 0.34375-0.4375 0-0.77734-0.11328-1.0156-0.34375-0.24219-0.22656-0.35938-0.55078-0.35938-0.96875 0-0.40625 0.11719-0.72266 0.35938-0.95312 0.23828-0.23828 0.57812-0.35938 1.0156-0.35938z"></path>
  </symbol>
  <symbol id="SvgjsSymbol1011" overflow="visible">
   <path d="m0.35938-0.96875v-1.5312h0.79688v0.25 0.51562 0.40625c0 0.19922 0.003906 0.34375 0.015625 0.4375 0.007813 0.085937 0.03125 0.14844 0.0625 0.1875 0.03125 0.054687 0.070313 0.09375 0.125 0.125 0.050781 0.023437 0.10938 0.03125 0.17188 0.03125 0.16406 0 0.29688-0.0625 0.39062-0.1875 0.10156-0.125 0.15625-0.30078 0.15625-0.53125v-1.2344h0.79688v2.5h-0.79688v-0.35938c-0.125 0.14844-0.25781 0.25781-0.39062 0.32812-0.13672 0.0625-0.28125 0.09375-0.4375 0.09375-0.29297 0-0.51562-0.085938-0.67188-0.26562-0.14844-0.17578-0.21875-0.42969-0.21875-0.76562z"></path>
  </symbol>
  <symbol id="SvgjsSymbol1010" overflow="visible">
   <path d="m2.9062-1.5312v1.5312h-0.8125v-1.1719c0-0.20703-0.007812-0.35156-0.015625-0.4375-0.011719-0.082031-0.027344-0.14453-0.046875-0.1875-0.03125-0.050781-0.074219-0.085937-0.125-0.10938-0.054688-0.03125-0.11719-0.046875-0.1875-0.046875-0.16797 0-0.29688 0.0625-0.39062 0.1875s-0.14062 0.30469-0.14062 0.53125v1.2344h-0.79688v-2.5h0.79688v0.35938c0.11328-0.14453 0.23828-0.25 0.375-0.3125 0.13281-0.070313 0.28516-0.10938 0.45312-0.10938 0.28906 0 0.50781 0.089844 0.65625 0.26562 0.15625 0.17969 0.23438 0.43359 0.23438 0.76562z"></path>
  </symbol>
  <symbol id="SvgjsSymbol1009" overflow="visible">
   <path d="m0.42188-3.3438h0.85938v3.0156c0 0.41406-0.11719 0.72656-0.34375 0.9375-0.21875 0.20703-0.55859 0.3125-1.0156 0.3125h-0.17188v-0.65625h0.125c0.17578 0 0.3125-0.054687 0.40625-0.15625 0.09375-0.09375 0.14062-0.23828 0.14062-0.4375z"></path>
  </symbol>
  <symbol id="SvgjsSymbol1008" overflow="visible">
   <path d="m2.7031-2.0938c0.10156-0.15625 0.22266-0.26953 0.35938-0.34375 0.14453-0.082031 0.30078-0.125 0.46875-0.125 0.28125 0 0.49219 0.089844 0.64062 0.26562 0.15625 0.17969 0.23438 0.43359 0.23438 0.76562v1.5312h-0.79688v-1.3125-0.046875-0.09375c0-0.17578-0.027344-0.30078-0.078125-0.375-0.054688-0.082031-0.13672-0.125-0.25-0.125-0.15625 0-0.27734 0.0625-0.35938 0.1875-0.085937 0.125-0.125 0.30469-0.125 0.53125v1.2344h-0.8125v-1.3125c0-0.26953-0.027344-0.44141-0.078125-0.51562-0.042969-0.082031-0.12109-0.125-0.23438-0.125-0.15625 0-0.27734 0.0625-0.35938 0.1875-0.085938 0.125-0.125 0.30469-0.125 0.53125v1.2344h-0.8125v-2.5h0.8125v0.35938c0.09375-0.13281 0.20312-0.23828 0.32812-0.3125 0.13281-0.070313 0.27344-0.10938 0.42188-0.10938 0.17578 0 0.33203 0.042969 0.46875 0.125 0.13281 0.085938 0.23438 0.19922 0.29688 0.34375z"></path>
  </symbol>
  <symbol id="SvgjsSymbol1007" overflow="visible">
   <path d="m0.39062-2.5h0.79688v2.5h-0.79688zm0-0.98438h0.79688v0.65625h-0.79688z"></path>
  </symbol>
  <symbol id="SvgjsSymbol1006" overflow="visible">
   <path d="m0.39062-3.4844h0.79688v3.4844h-0.79688z"></path>
  </symbol>
  <symbol id="SvgjsSymbol1005" overflow="visible">
   <path d="m2.0312-3.4844v0.53125h-0.4375c-0.11719 0-0.19922 0.023437-0.25 0.0625-0.042969 0.042969-0.0625 0.11719-0.0625 0.21875v0.17188h0.6875v0.5625h-0.6875v1.9375h-0.79688v-1.9375h-0.39062v-0.5625h0.39062v-0.17188c0-0.28125 0.070313-0.48438 0.21875-0.60938 0.15625-0.13281 0.39453-0.20312 0.71875-0.20312z"></path>
  </symbol>
  <symbol id="SvgjsSymbol1004" overflow="visible">
   <path d="m2.9062-1.5312v1.5312h-0.8125v-1.1562c0-0.21875-0.007812-0.36719-0.015625-0.45312-0.011719-0.082031-0.027344-0.14453-0.046875-0.1875-0.03125-0.050781-0.074219-0.085937-0.125-0.10938-0.054688-0.03125-0.11719-0.046875-0.1875-0.046875-0.16797 0-0.29688 0.0625-0.39062 0.1875s-0.14062 0.30469-0.14062 0.53125v1.2344h-0.79688v-3.4844h0.79688v1.3438c0.11328-0.14453 0.23828-0.25 0.375-0.3125 0.13281-0.070313 0.28516-0.10938 0.45312-0.10938 0.28906 0 0.50781 0.089844 0.65625 0.26562 0.15625 0.17969 0.23438 0.43359 0.23438 0.76562z"></path>
  </symbol>
  <symbol id="SvgjsSymbol1003" overflow="visible">
   <path d="m0.42188-3.3438h0.95312l1.2188 2.2969v-2.2969h0.8125v3.3438h-0.95312l-1.2188-2.2969v2.2969h-0.8125z"></path>
  </symbol>
  <symbol id="SvgjsSymbol1002" overflow="visible">
   <path d="m0.42188-3.3438h1.4219c0.42578 0 0.75391 0.10156 0.98438 0.29688 0.22656 0.1875 0.34375 0.45312 0.34375 0.79688 0 0.35547-0.11719 0.625-0.34375 0.8125-0.23047 0.1875-0.55859 0.28125-0.98438 0.28125h-0.5625v1.1562h-0.85938zm0.85938 0.625v0.9375h0.46875c0.16406 0 0.29688-0.039062 0.39062-0.125 0.09375-0.082031 0.14062-0.19531 0.14062-0.34375 0-0.14453-0.046875-0.25781-0.14062-0.34375-0.09375-0.082031-0.22656-0.125-0.39062-0.125z"></path>
  </symbol>
  <symbol id="SvgjsSymbol1001" overflow="visible">
   <path d="m0.39062-2.5h0.79688v2.4531c0 0.33203-0.085938 0.58594-0.25 0.76562-0.15625 0.17578-0.38672 0.26562-0.6875 0.26562h-0.40625v-0.51562h0.14062c0.15625 0 0.25781-0.039062 0.3125-0.10938 0.0625-0.074219 0.09375-0.21094 0.09375-0.40625zm0-0.98438h0.79688v0.65625h-0.79688z"></path>
  </symbol>
  <symbol id="SvgjsSymbol1000" overflow="visible">
   <path d="m2.4062-2.4219v0.65625c-0.10547-0.082031-0.21484-0.14062-0.32812-0.17188-0.10547-0.03125-0.21875-0.046875-0.34375-0.046875-0.21875 0-0.39062 0.070313-0.51562 0.20312-0.125 0.125-0.1875 0.30469-0.1875 0.53125 0 0.23047 0.0625 0.41406 0.1875 0.54688 0.125 0.13672 0.29688 0.20312 0.51562 0.20312 0.125 0 0.24219-0.019531 0.35938-0.0625 0.11328-0.039062 0.21875-0.097656 0.3125-0.17188v0.65625c-0.125 0.054688-0.25781 0.085938-0.39062 0.10938-0.125 0.019531-0.25 0.03125-0.375 0.03125-0.44922 0-0.80469-0.11328-1.0625-0.34375-0.25-0.22656-0.375-0.55078-0.375-0.96875 0-0.41406 0.125-0.73828 0.375-0.96875 0.25781-0.22656 0.61328-0.34375 1.0625-0.34375 0.125 0 0.25 0.011719 0.375 0.03125 0.13281 0.023438 0.26562 0.058594 0.39062 0.10938z"></path>
  </symbol>
 </defs>
 <g>
  <path d="m522.25 54.973c27.488 4.582 50.395 29.32 54.059 34.816l43.062 79.711 65.051 9.1641c7.3281 0.91797 15.574 7.3281 15.574 14.66v17.41c0 7.3281-6.4141 12.828-13.742 12.828h-37.566c7.3281 7.3281 38.48 28.402 39.398 102.62 0 62.305 0.91797 124.61 0.91797 186.91 0 10.996-9.1641 21.074-21.074 21.074h-92.539c-10.996 0-20.156-10.078-20.156-21.074v-24.738c-136.52 8.2461-273.95 8.2461-410.47 0v24.738c0 10.996-9.1641 21.074-20.156 21.074h-92.539c-11.91 0-21.074-10.078-21.074-21.074 0-62.305 0.91797-124.61 0.91797-186.91 0.91797-74.215 32.066-95.289 39.398-102.62h-37.566c-7.3281 0-13.742-5.4961-13.742-12.828v-17.41c0-7.3281 8.2461-13.742 15.574-14.66l65.051-9.1641 43.062-79.711c3.6641-5.4961 26.57-30.234 54.059-34.816 107.2-15.574 237.3-15.574 344.5 0zm-76.047 339.92c6.4141 0 10.996-4.582 10.996-10.996 0-6.4141-4.582-10.996-10.996-10.996h-192.41c-6.4141 0-10.996 4.582-10.996 10.996 0 6.4141 4.582 10.996 10.996 10.996zm0-43.062c6.4141 0 10.996-5.4961 10.996-10.996 0-6.4141-4.582-11.91-10.996-11.91h-192.41c-6.4141 0-10.996 5.4961-10.996 11.91 0 5.4961 4.582 10.996 10.996 10.996zm-382.98-24.738h71.465l30.234 70.551h-101.7v-70.551zm573.56 0h-71.465l-30.234 70.551h101.7v-70.551z" fill-rule="evenodd"></path>
  <use y="547.90625" xlink:href="#w"></use>
  <use x="3.363281" y="547.90625" xlink:href="#b"></use>
  <use x="5.621094" y="547.90625" xlink:href="#a"></use>
  <use x="8.726562" y="547.90625" xlink:href="#e"></use>
  <use x="11.820313" y="547.90625" xlink:href="#d"></use>
  <use x="14.007812" y="547.90625" xlink:href="#a"></use>
  <use x="17.117188" y="547.90625" xlink:href="#l"></use>
  <use x="21.992188" y="547.90625" xlink:href="#f"></use>
  <use x="25.269531" y="547.90625" xlink:href="#k"></use>
  <use x="29.851563" y="547.90625" xlink:href="#j"></use>
  <use x="32.980469" y="547.90625" xlink:href="#e"></use>
  <use x="36.070312" y="547.90625" xlink:href="#v"></use>
  <use x="38.800781" y="547.90625" xlink:href="#c"></use>
  <use x="41.945312" y="547.90625" xlink:href="#f"></use>
  <use x="45.226562" y="547.90625" xlink:href="#b"></use>
  <use x="47.484375" y="547.90625" xlink:href="#i"></use>
  <use x="50.746094" y="547.90625" xlink:href="#h"></use>
  <use x="55.601562" y="547.90625" xlink:href="#u"></use>
  <use x="57.308594" y="547.90625" xlink:href="#e"></use>
  <use x="60.398438" y="547.90625" xlink:href="#g"></use>
  <use x="65.171875" y="547.90625" xlink:href="#t"></use>
  <use x="66.742188" y="547.90625" xlink:href="#s"></use>
  <use y="552.488281" xlink:href="#r"></use>
  <use x="1.992187" y="552.488281" xlink:href="#b"></use>
  <use x="4.253906" y="552.488281" xlink:href="#c"></use>
  <use x="7.398438" y="552.488281" xlink:href="#g"></use>
  <use x="13.769531" y="552.488281" xlink:href="#d"></use>
  <use x="15.957031" y="552.488281" xlink:href="#q"></use>
  <use x="19.21875" y="552.488281" xlink:href="#a"></use>
  <use x="23.921875" y="552.488281" xlink:href="#p"></use>
  <use x="27.753906" y="552.488281" xlink:href="#c"></use>
  <use x="30.902344" y="552.488281" xlink:href="#i"></use>
  <use x="34.164062" y="552.488281" xlink:href="#h"></use>
  <use x="39.019531" y="552.488281" xlink:href="#o"></use>
  <use x="42.378906" y="552.488281" xlink:href="#b"></use>
  <use x="44.636719" y="552.488281" xlink:href="#c"></use>
  <use x="47.785156" y="552.488281" xlink:href="#n"></use>
  <use x="49.355469" y="552.488281" xlink:href="#a"></use>
  <use x="52.460938" y="552.488281" xlink:href="#m"></use>
  <use x="55.175781" y="552.488281" xlink:href="#d"></use>
 </g>
</svg><style>@media (prefers-color-scheme: light) { :root { filter: none; } }
</style></svg>